<svg xmlns="http://www.w3.org/2000/svg" viewBox="0 0 128 128" role="img" aria-label="쇼츠 영수증">
  <rect width="128" height="128" rx="30" fill="#fffaf0"/>
  <path d="M31 18h66v78l-8-5-8 5-8-5-8 5-8-5-8 5-8-5-8 5V18Z" fill="#fffaf0" stroke="#211d19" stroke-linejoin="round" stroke-width="7"/>
  <path d="M45 42h38M45 56h30M45 70h23" fill="none" stroke="#211d19" stroke-linecap="round" stroke-width="7"/>
  <circle cx="84" cy="84" r="15" fill="#9d392c" stroke="#fffaf0" stroke-width="5"/>
  <path d="M84 91c-1.4-1.1-8.2-5.8-8.2-10.4 0-3.4 4.1-5.2 6.8-2.6l1.4 1.5 1.4-1.5c2.7-2.6 6.8-.8 6.8 2.6 0 4.6-6.8 9.3-8.2 10.4Z" fill="#fffaf0"/>
</svg>
